<?xml version="1.0" encoding="UTF-8"?>
<svg id="Layer_2" data-name="Layer 2" xmlns="http://www.w3.org/2000/svg" viewBox="0 0 617.09 228.86">
  <defs>
    <style>
      .cls-1 {
        fill: #333;
      }
    </style>
  </defs>
  <g id="Layer_1-2" data-name="Layer 1">
    <g>
      <g>
        <path d="M85.91,92.49V0h56.37v20.24h-33.16v18.53h27.13v20.24h-27.13v33.48h-23.21Z"/>
        <path d="M139.35,58.61c0-18.14,14.19-33.74,37.93-33.74s38.22,15.6,38.22,33.74-14.19,33.88-38.22,33.88-37.93-15.74-37.93-33.88ZM192.62,58.61c0-8.54-5.5-15.6-15.35-15.6s-15.06,7.07-15.06,15.6,5.5,15.74,15.06,15.74,15.35-7.07,15.35-15.74Z"/>
        <path d="M218.94,91.99V27.82h22.28v10.96c4.32-5.26,6.88-11.21,25.87-11.21v19.97s-2.97-.54-5.13-.54-5.37.13-8.64.51c-6.63.77-11.64,6.38-11.73,13.05v31.43h-22.66Z"/>
        <path d="M313.92,46.41v-17.94h-13.22V8.66h-20.78v19.81h-9.29v17.94h8.29v28.19c0,4.97,1.85,8.79,4.45,11.69,3.63,4.07,8.96,6.2,14.42,6.2h15.79l.06-.06v-17.64s-4.97.12-7.26.12c-3.51,0-5.67-2.84-5.67-6.62v-21.88h13.22Z"/>
        <path d="M512.09,92.49v-35.14c0-7.96-6.18-10.79-12.66-10.79s-10.25,3.37-12.68,6.34v39.59h-21.78V29.82h21.78v7.96c3.91-4.59,13.6-9.58,24.67-9.58,14.71,0,21.45,8.63,21.45,20.64v43.64h-20.78Z"/>
        <path d="M539.56,79.05c0-7.15,6.29-13.3,13.59-13.3s13.44,6.15,13.44,13.3-6.15,13.44-13.44,13.44-13.59-6.15-13.59-13.44Z"/>
        <path d="M460.4,49.97c-.61-2.63-1.49-5.13-2.6-7.46-3.73-7.84-10.87-13.56-19.24-15.88-2.55-.71-5.22-1.17-7.97-1.34-.85-.05-1.7-.08-2.56-.08-20.15,0-36.5,15.06-36.5,33.64s14.34,33.64,36.5,33.64c24.65,0,30.59-16.03,32.5-22.37h-21.34c-2.33,3.74-6.47,6.22-11.19,6.22s-8.87-2.48-11.2-6.22c-1.26-2.02-1.99-4.4-1.99-6.96v-.45h46.42s.01-.1.01-.15c.12-1.22.18-2.45.18-3.71,0-3.08-.35-6.05-1.02-8.88ZM415.05,49.97c1.18-6.08,6.53-10.67,12.95-10.67,3.64,0,6.93,1.48,9.32,3.87,1.82,1.82,3.11,4.17,3.62,6.8h-25.89Z"/>
        <path d="M385.29,49.97c-.51-2.18-1.2-4.27-2.05-6.25-3.79-8.79-11.67-15.13-20.97-17.4-2.19-.53-4.46-.88-6.79-1.03-.85-.05-1.7-.08-2.56-.08-20.15,0-36.5,15.06-36.5,33.64s14.34,33.64,36.5,33.64c24.65,0,30.59-16.03,32.5-22.37h-21.34c-2.33,3.74-6.47,6.22-11.19,6.22s-8.87-2.48-11.2-6.22c-1.26-2.02-1.99-4.4-1.99-6.96v-.45h46.42s.01-.1.01-.15c.12-1.22.18-2.45.18-3.71,0-3.08-.35-6.05-1.02-8.88ZM339.94,49.97c1.18-6.08,6.53-10.67,12.95-10.67,3.64,0,6.93,1.48,9.32,3.87,1.82,1.82,3.11,4.17,3.62,6.8h-25.89Z"/>
      </g>
      <g>
        <path class="cls-1" d="M165.72,120.72c0-6.15,4.56-10.35,10.26-10.35,3.93,0,6.39,1.89,7.95,4.23l-2.55,1.35c-1.05-1.68-3.03-2.91-5.4-2.91-4.05,0-7.17,3.18-7.17,7.68s3.12,7.68,7.17,7.68c2.37,0,4.35-1.23,5.4-2.91l2.55,1.35c-1.59,2.34-4.02,4.23-7.95,4.23-5.7,0-10.26-4.2-10.26-10.35Z"/>
        <path class="cls-1" d="M211.77,110.37c5.97,0,10.08,4.41,10.08,10.35s-4.11,10.35-10.08,10.35-10.08-4.41-10.08-10.35,4.11-10.35,10.08-10.35ZM211.77,113.04c-4.29,0-6.99,3.27-6.99,7.68s2.7,7.68,6.99,7.68,6.99-3.3,6.99-7.68-2.76-7.68-6.99-7.68Z"/>
        <path class="cls-1" d="M255.15,130.71l-11.07-15.36v15.36h-3v-20.01h3.09l10.89,15v-15h3v20.01h-2.91Z"/>
        <path class="cls-1" d="M278.58,125.58c1.35,1.5,3.51,2.82,6.3,2.82,3.24,0,4.38-1.65,4.38-3.09,0-2.1-2.28-2.7-4.83-3.36-3.21-.84-6.93-1.77-6.93-5.85,0-3.3,2.91-5.7,7.08-5.7,3.09,0,5.52.99,7.29,2.79l-1.74,2.22c-1.53-1.62-3.63-2.34-5.79-2.34s-3.75,1.14-3.75,2.82c0,1.8,2.16,2.37,4.65,3,3.27.87,7.08,1.89,7.08,6.15,0,3.12-2.16,6.03-7.56,6.03-3.57,0-6.18-1.29-7.89-3.18l1.71-2.31Z"/>
        <path class="cls-1" d="M311.4,110.7h3.03v12.09c0,3.42,1.89,5.61,5.4,5.61s5.37-2.19,5.37-5.61v-12.09h3.03v12.15c0,4.98-2.79,8.22-8.4,8.22s-8.43-3.27-8.43-8.19v-12.18Z"/>
        <path class="cls-1" d="M348.3,130.71v-20.01h3v17.37h9.09v2.64h-12.09Z"/>
        <path class="cls-1" d="M381.18,130.71v-17.37h-6.21v-2.64h15.39v2.64h-6.18v17.37h-3Z"/>
        <path class="cls-1" d="M409.08,130.71v-20.01h3v20.01h-3Z"/>
        <path class="cls-1" d="M446.22,130.71l-11.07-15.36v15.36h-3v-20.01h3.09l10.89,15v-15h3v20.01h-2.91Z"/>
        <path class="cls-1" d="M478.71,110.37c3.75,0,6.24,1.71,7.92,3.96l-2.43,1.41c-1.14-1.53-3.15-2.7-5.49-2.7-4.17,0-7.29,3.18-7.29,7.68s3.12,7.71,7.29,7.71c2.22,0,4.11-1.08,5.07-1.98v-3.6h-6.42v-2.64h9.42v7.35c-1.92,2.13-4.68,3.54-8.07,3.54-5.73,0-10.38-4.14-10.38-10.38s4.65-10.35,10.38-10.35Z"/>
      </g>
    </g>
    <g>
      <path class="cls-1" d="M15.85,220.96c-2.19,0-4.24-.39-6.17-1.15-1.93-.77-3.6-1.86-5.04-3.26-1.43-1.4-2.56-3.08-3.4-5.04-.83-1.96-1.25-4.13-1.25-6.54s.42-4.58,1.25-6.54c.83-1.96,1.96-3.63,3.4-5.01s3.11-2.46,5.04-3.23c1.92-.77,3.98-1.16,6.17-1.16,2.74,0,5.07.54,7,1.62,1.92,1.08,3.58,2.46,4.97,4.16l-3.05,1.89c-.99-1.26-2.26-2.29-3.81-3.07-1.56-.79-3.26-1.18-5.1-1.18-1.69,0-3.27.31-4.71.92-1.45.62-2.7,1.48-3.77,2.59-1.06,1.11-1.89,2.43-2.49,3.95s-.9,3.21-.9,5.06.3,3.5.9,5.04c.6,1.54,1.43,2.86,2.49,3.97,1.06,1.11,2.32,1.98,3.77,2.61,1.45.63,3.02.95,4.71.95.92,0,1.8-.1,2.63-.3.83-.2,1.6-.46,2.31-.79.71-.32,1.35-.69,1.92-1.09.57-.4,1.04-.79,1.41-1.15v-6.28h-10.58v-3.42h14.41v11.13c-1.45,1.6-3.2,2.89-5.24,3.86-2.05.97-4.34,1.46-6.86,1.46Z"/>
      <path class="cls-1" d="M34.05,220.36v-22.31h3.47v3.6c.89-1.17,1.97-2.14,3.23-2.91,1.26-.77,2.66-1.15,4.2-1.15v3.56c-.43-.09-.89-.14-1.39-.14-.52,0-1.09.1-1.69.3-.6.2-1.19.47-1.76.81-.57.34-1.09.72-1.55,1.13-.46.42-.82.85-1.06,1.32v15.8h-3.47Z"/>
      <path class="cls-1" d="M59.37,220.92c-1.66,0-3.19-.29-4.57-.85-1.39-.57-2.58-1.37-3.58-2.4-1-1.03-1.79-2.26-2.36-3.7-.57-1.43-.85-3.03-.85-4.78,0-1.6.28-3.12.83-4.55.56-1.43,1.32-2.67,2.29-3.72.97-1.05,2.13-1.88,3.47-2.49,1.34-.62,2.82-.92,4.42-.92,1.7,0,3.21.31,4.54.92,1.33.62,2.45,1.46,3.38,2.54.93,1.08,1.63,2.35,2.11,3.81.48,1.46.72,3.03.72,4.69v.88h-18.11c.06,1.05.29,2.04.69,2.98.4.94.95,1.76,1.64,2.45s1.52,1.25,2.47,1.66c.95.42,2.03.62,3.23.62,1.29,0,2.54-.25,3.74-.74,1.2-.49,2.25-1.19,3.14-2.08l1.66,2.26c-1.11,1.11-2.4,1.96-3.88,2.54-1.48.58-3.14.88-4.99.88ZM66.3,207.8c0-.83-.15-1.69-.44-2.56-.29-.88-.74-1.68-1.34-2.4-.6-.72-1.36-1.32-2.29-1.78-.92-.46-2.02-.69-3.28-.69s-2.25.23-3.14.69c-.89.46-1.64,1.05-2.24,1.76-.6.71-1.06,1.5-1.39,2.38-.32.88-.5,1.75-.53,2.61h14.65Z"/>
      <path class="cls-1" d="M89.26,220.36v-2.54c-1.88,2.06-4.34,3.1-7.39,3.1-.96,0-1.89-.15-2.82-.46-.92-.31-1.76-.78-2.5-1.41-.74-.63-1.34-1.41-1.8-2.33s-.69-1.99-.69-3.19.23-2.31.69-3.23,1.06-1.69,1.8-2.31c.74-.62,1.57-1.07,2.5-1.36.92-.29,1.86-.44,2.82-.44,1.54,0,2.93.25,4.18.74,1.25.49,2.32,1.26,3.21,2.31v-4.02c0-1.51-.53-2.67-1.59-3.49-1.06-.82-2.41-1.22-4.04-1.22-2.62,0-4.9,1.03-6.84,3.1l-1.62-2.4c2.37-2.46,5.34-3.7,8.92-3.7,1.17,0,2.28.14,3.33.42,1.05.28,1.96.72,2.75,1.32.79.6,1.41,1.38,1.87,2.33.46.96.69,2.11.69,3.46v15.34h-3.47ZM83.11,218.42c1.23,0,2.39-.23,3.49-.69,1.09-.46,1.98-1.16,2.66-2.08v-4.2c-.68-.92-1.56-1.62-2.66-2.08-1.09-.46-2.26-.69-3.49-.69-1.63,0-2.96.46-3.97,1.36-1.02.91-1.52,2.09-1.52,3.53s.51,2.58,1.52,3.49c1.02.91,2.34,1.36,3.97,1.36Z"/>
      <path class="cls-1" d="M105.29,220.92c-1.66,0-2.9-.45-3.72-1.36-.82-.91-1.22-2.19-1.22-3.85v-14.57h-3.7v-3.1h3.7v-6.1h3.46v6.1h4.53v3.1h-4.53v13.82c0,.83.19,1.51.55,2.05.37.54.94.81,1.71.81.49,0,.95-.09,1.36-.28.42-.18.75-.4.99-.65l1.02,2.59c-.43.43-.98.78-1.64,1.04-.66.26-1.5.39-2.52.39Z"/>
      <path class="cls-1" d="M136.15,220.92c-1.54,0-2.96-.34-4.25-1.02-1.29-.68-2.39-1.65-3.28-2.91v11.87h-3.47v-30.82h3.47v3.33c.8-1.14,1.86-2.07,3.19-2.8,1.32-.72,2.77-1.09,4.34-1.09,1.48,0,2.83.27,4.04.81,1.22.54,2.26,1.31,3.14,2.31.88,1,1.56,2.23,2.03,3.67s.72,3.08.72,4.9-.24,3.45-.72,4.9c-.48,1.45-1.15,2.68-2.03,3.7-.88,1.02-1.93,1.79-3.14,2.33-1.22.54-2.56.81-4.04.81ZM135.27,217.82c1.11,0,2.11-.22,3-.65.89-.43,1.65-1.03,2.26-1.8.62-.77,1.09-1.69,1.41-2.75.32-1.06.49-2.21.49-3.44s-.16-2.37-.49-3.42c-.32-1.05-.79-1.96-1.41-2.73-.62-.77-1.37-1.37-2.26-1.8-.89-.43-1.89-.65-3-.65-1.39,0-2.69.35-3.9,1.04-1.22.69-2.13,1.53-2.75,2.52v10.07c.62.99,1.53,1.83,2.75,2.54,1.22.71,2.52,1.06,3.9,1.06Z"/>
      <path class="cls-1" d="M161.65,220.92c-1.66,0-3.19-.29-4.57-.85-1.39-.57-2.58-1.37-3.58-2.4-1-1.03-1.79-2.26-2.36-3.7-.57-1.43-.85-3.03-.85-4.78,0-1.6.28-3.12.83-4.55.56-1.43,1.32-2.67,2.29-3.72.97-1.05,2.13-1.88,3.47-2.49,1.34-.62,2.82-.92,4.42-.92,1.7,0,3.21.31,4.54.92,1.33.62,2.45,1.46,3.38,2.54.93,1.08,1.63,2.35,2.11,3.81.48,1.46.72,3.03.72,4.69v.88h-18.11c.06,1.05.29,2.04.69,2.98.4.94.95,1.76,1.64,2.45s1.52,1.25,2.47,1.66c.95.42,2.03.62,3.23.62,1.29,0,2.54-.25,3.74-.74,1.2-.49,2.25-1.19,3.14-2.08l1.66,2.26c-1.11,1.11-2.4,1.96-3.88,2.54-1.48.58-3.14.88-4.99.88ZM168.58,207.8c0-.83-.15-1.69-.44-2.56-.29-.88-.74-1.68-1.34-2.4-.6-.72-1.36-1.32-2.29-1.78-.92-.46-2.02-.69-3.28-.69s-2.25.23-3.14.69c-.89.46-1.64,1.05-2.24,1.76-.6.71-1.06,1.5-1.39,2.38-.32.88-.5,1.75-.53,2.61h14.65Z"/>
      <path class="cls-1" d="M187.34,220.92c-1.69,0-3.23-.31-4.6-.92s-2.53-1.46-3.49-2.52c-.96-1.06-1.69-2.3-2.19-3.72-.51-1.42-.76-2.94-.76-4.57s.25-3.12.76-4.55c.51-1.43,1.24-2.67,2.19-3.72.95-1.05,2.12-1.88,3.49-2.49,1.37-.62,2.9-.92,4.6-.92s3.23.31,4.6.92c1.37.62,2.53,1.45,3.49,2.49.95,1.05,1.69,2.29,2.19,3.72s.76,2.95.76,4.55-.25,3.16-.76,4.57c-.51,1.42-1.24,2.66-2.19,3.72-.96,1.06-2.12,1.9-3.49,2.52-1.37.62-2.9.92-4.6.92ZM187.34,217.82c1.2,0,2.26-.24,3.16-.72.91-.48,1.68-1.11,2.31-1.89.63-.79,1.11-1.7,1.43-2.75.32-1.05.48-2.14.48-3.28s-.16-2.22-.48-3.26c-.32-1.03-.8-1.94-1.43-2.73s-1.4-1.42-2.31-1.89c-.91-.48-1.96-.72-3.16-.72s-2.26.24-3.19.72c-.92.48-1.7,1.11-2.33,1.89-.63.79-1.11,1.69-1.43,2.73-.32,1.03-.49,2.12-.49,3.26s.16,2.23.49,3.28c.32,1.05.8,1.96,1.43,2.75.63.79,1.41,1.42,2.33,1.89.92.48,1.99.72,3.19.72Z"/>
      <path class="cls-1" d="M215.01,220.92c-1.54,0-2.96-.34-4.25-1.02-1.29-.68-2.39-1.65-3.28-2.91v11.87h-3.47v-30.82h3.47v3.33c.8-1.14,1.86-2.07,3.19-2.8,1.32-.72,2.77-1.09,4.34-1.09,1.48,0,2.83.27,4.04.81,1.22.54,2.26,1.31,3.14,2.31.88,1,1.56,2.23,2.03,3.67s.72,3.08.72,4.9-.24,3.45-.72,4.9c-.48,1.45-1.15,2.68-2.03,3.7-.88,1.02-1.93,1.79-3.14,2.33-1.22.54-2.56.81-4.04.81ZM214.14,217.82c1.11,0,2.11-.22,3-.65.89-.43,1.65-1.03,2.26-1.8.62-.77,1.09-1.69,1.41-2.75.32-1.06.49-2.21.49-3.44s-.16-2.37-.49-3.42c-.32-1.05-.79-1.96-1.41-2.73-.62-.77-1.37-1.37-2.26-1.8-.89-.43-1.89-.65-3-.65-1.39,0-2.69.35-3.9,1.04-1.22.69-2.13,1.53-2.75,2.52v10.07c.62.99,1.53,1.83,2.75,2.54,1.22.71,2.52,1.06,3.9,1.06Z"/>
      <path class="cls-1" d="M230.44,220.36v-30.82h3.47v30.82h-3.47Z"/>
      <path class="cls-1" d="M250.91,220.92c-1.66,0-3.19-.29-4.57-.85-1.39-.57-2.58-1.37-3.58-2.4-1-1.03-1.79-2.26-2.36-3.7-.57-1.43-.85-3.03-.85-4.78,0-1.6.28-3.12.83-4.55.56-1.43,1.32-2.67,2.29-3.72.97-1.05,2.13-1.88,3.47-2.49,1.34-.62,2.82-.92,4.42-.92,1.7,0,3.21.31,4.54.92,1.33.62,2.45,1.46,3.38,2.54.93,1.08,1.63,2.35,2.11,3.81.48,1.46.72,3.03.72,4.69v.88h-18.11c.06,1.05.29,2.04.69,2.98.4.94.95,1.76,1.64,2.45s1.52,1.25,2.47,1.66c.95.42,2.03.62,3.23.62,1.29,0,2.54-.25,3.74-.74,1.2-.49,2.25-1.19,3.14-2.08l1.66,2.26c-1.11,1.11-2.4,1.96-3.88,2.54-1.48.58-3.14.88-4.99.88ZM257.84,207.8c0-.83-.15-1.69-.44-2.56-.29-.88-.74-1.68-1.34-2.4-.6-.72-1.36-1.32-2.29-1.78-.92-.46-2.02-.69-3.28-.69s-2.25.23-3.14.69c-.89.46-1.64,1.05-2.24,1.76-.6.71-1.06,1.5-1.39,2.38-.32.88-.5,1.75-.53,2.61h14.65Z"/>
      <path class="cls-1" d="M268.38,220.82c-.71,0-1.31-.25-1.8-.74-.49-.49-.74-1.09-.74-1.8s.25-1.31.74-1.8,1.09-.74,1.8-.74,1.31.25,1.8.74c.49.49.74,1.09.74,1.8s-.25,1.31-.74,1.8c-.49.49-1.09.74-1.8.74Z"/>
      <path class="cls-1" d="M303.81,220.96c-2.19,0-4.24-.39-6.17-1.15-1.93-.77-3.6-1.86-5.04-3.26-1.43-1.4-2.56-3.08-3.4-5.04-.83-1.96-1.25-4.13-1.25-6.54s.42-4.58,1.25-6.54c.83-1.96,1.96-3.63,3.4-5.01s3.11-2.46,5.04-3.23c1.92-.77,3.98-1.16,6.17-1.16,2.74,0,5.07.54,7,1.62,1.92,1.08,3.58,2.46,4.97,4.16l-3.05,1.89c-.99-1.26-2.26-2.29-3.81-3.07-1.56-.79-3.26-1.18-5.1-1.18-1.69,0-3.27.31-4.71.92-1.45.62-2.7,1.48-3.77,2.59-1.06,1.11-1.89,2.43-2.49,3.95s-.9,3.21-.9,5.06.3,3.5.9,5.04c.6,1.54,1.43,2.86,2.49,3.97,1.06,1.11,2.32,1.98,3.77,2.61,1.45.63,3.02.95,4.71.95.92,0,1.8-.1,2.63-.3.83-.2,1.6-.46,2.31-.79.71-.32,1.35-.69,1.92-1.09.57-.4,1.04-.79,1.41-1.15v-6.28h-10.58v-3.42h14.41v11.13c-1.45,1.6-3.2,2.89-5.24,3.86-2.05.97-4.34,1.46-6.86,1.46Z"/>
      <path class="cls-1" d="M322.01,220.36v-22.31h3.47v3.6c.89-1.17,1.97-2.14,3.23-2.91,1.26-.77,2.66-1.15,4.2-1.15v3.56c-.43-.09-.89-.14-1.39-.14-.52,0-1.09.1-1.69.3-.6.2-1.19.47-1.76.81-.57.34-1.09.72-1.55,1.13-.46.42-.82.85-1.06,1.32v15.8h-3.47Z"/>
      <path class="cls-1" d="M347.33,220.92c-1.66,0-3.19-.29-4.57-.85-1.39-.57-2.58-1.37-3.58-2.4-1-1.03-1.79-2.26-2.36-3.7-.57-1.43-.85-3.03-.85-4.78,0-1.6.28-3.12.83-4.55.56-1.43,1.32-2.67,2.29-3.72.97-1.05,2.13-1.88,3.47-2.49,1.34-.62,2.82-.92,4.42-.92,1.7,0,3.21.31,4.54.92,1.33.62,2.45,1.46,3.38,2.54.93,1.08,1.63,2.35,2.11,3.81.48,1.46.72,3.03.72,4.69v.88h-18.11c.06,1.05.29,2.04.69,2.98.4.94.95,1.76,1.64,2.45s1.52,1.25,2.47,1.66c.95.42,2.03.62,3.23.62,1.29,0,2.54-.25,3.74-.74,1.2-.49,2.25-1.19,3.14-2.08l1.66,2.26c-1.11,1.11-2.4,1.96-3.88,2.54-1.48.58-3.14.88-4.99.88ZM354.26,207.8c0-.83-.15-1.69-.44-2.56-.29-.88-.74-1.68-1.34-2.4-.6-.72-1.36-1.32-2.29-1.78-.92-.46-2.02-.69-3.28-.69s-2.25.23-3.14.69c-.89.46-1.64,1.05-2.24,1.76-.6.71-1.06,1.5-1.39,2.38-.32.88-.5,1.75-.53,2.61h14.65Z"/>
      <path class="cls-1" d="M377.22,220.36v-2.54c-1.88,2.06-4.34,3.1-7.39,3.1-.96,0-1.89-.15-2.82-.46-.92-.31-1.76-.78-2.5-1.41-.74-.63-1.34-1.41-1.8-2.33s-.69-1.99-.69-3.19.23-2.31.69-3.23,1.06-1.69,1.8-2.31c.74-.62,1.57-1.07,2.5-1.36.92-.29,1.86-.44,2.82-.44,1.54,0,2.93.25,4.18.74,1.25.49,2.32,1.26,3.21,2.31v-4.02c0-1.51-.53-2.67-1.59-3.49-1.06-.82-2.41-1.22-4.04-1.22-2.62,0-4.9,1.03-6.84,3.1l-1.62-2.4c2.37-2.46,5.34-3.7,8.92-3.7,1.17,0,2.28.14,3.33.42,1.05.28,1.96.72,2.75,1.32.79.6,1.41,1.38,1.87,2.33.46.96.69,2.11.69,3.46v15.34h-3.46ZM371.08,218.42c1.23,0,2.39-.23,3.49-.69,1.09-.46,1.98-1.16,2.66-2.08v-4.2c-.68-.92-1.56-1.62-2.66-2.08-1.09-.46-2.26-.69-3.49-.69-1.63,0-2.96.46-3.97,1.36-1.02.91-1.52,2.09-1.52,3.53s.51,2.58,1.52,3.49c1.02.91,2.34,1.36,3.97,1.36Z"/>
      <path class="cls-1" d="M393.25,220.92c-1.66,0-2.9-.45-3.72-1.36-.82-.91-1.22-2.19-1.22-3.85v-14.57h-3.7v-3.1h3.7v-6.1h3.46v6.1h4.53v3.1h-4.53v13.82c0,.83.18,1.51.55,2.05.37.54.94.81,1.71.81.49,0,.95-.09,1.36-.28.42-.18.75-.4.99-.65l1.02,2.59c-.43.43-.98.78-1.64,1.04s-1.5.39-2.52.39Z"/>
      <path class="cls-1" d="M422.87,220.92c-1.69,0-3.23-.31-4.6-.92-1.37-.62-2.53-1.46-3.49-2.52-.96-1.06-1.69-2.3-2.2-3.72-.51-1.42-.76-2.94-.76-4.57s.25-3.12.76-4.55c.51-1.43,1.24-2.67,2.2-3.72.95-1.05,2.12-1.88,3.49-2.49,1.37-.62,2.9-.92,4.6-.92s3.23.31,4.6.92c1.37.62,2.53,1.45,3.49,2.49.95,1.05,1.69,2.29,2.19,3.72.51,1.43.76,2.95.76,4.55s-.25,3.16-.76,4.57c-.51,1.42-1.24,2.66-2.19,3.72-.96,1.06-2.12,1.9-3.49,2.52-1.37.62-2.9.92-4.6.92ZM422.87,217.82c1.2,0,2.26-.24,3.16-.72.91-.48,1.68-1.11,2.31-1.89.63-.79,1.11-1.7,1.43-2.75.32-1.05.48-2.14.48-3.28s-.16-2.22-.48-3.26c-.32-1.03-.8-1.94-1.43-2.73-.63-.79-1.4-1.42-2.31-1.89s-1.96-.72-3.16-.72-2.26.24-3.19.72c-.92.48-1.7,1.11-2.33,1.89-.63.79-1.11,1.69-1.43,2.73-.32,1.03-.49,2.12-.49,3.26s.16,2.23.49,3.28c.32,1.05.8,1.96,1.43,2.75.63.79,1.41,1.42,2.33,1.89.92.48,1.99.72,3.19.72Z"/>
      <path class="cls-1" d="M454.61,220.36v-3.14c-.86.99-1.99,1.85-3.37,2.59-1.39.74-2.91,1.11-4.57,1.11-2.34,0-4.11-.58-5.31-1.73-1.2-1.15-1.8-2.95-1.8-5.38v-15.75h3.46v14.69c0,.99.12,1.8.35,2.45.23.65.57,1.17,1.02,1.57.45.4.98.68,1.59.83.62.15,1.29.23,2.03.23,1.35,0,2.63-.34,3.83-1.02,1.2-.68,2.13-1.46,2.77-2.36v-16.4h3.46v22.31h-3.46Z"/>
      <path class="cls-1" d="M470.64,220.92c-1.66,0-2.9-.45-3.72-1.36-.82-.91-1.22-2.19-1.22-3.85v-14.57h-3.7v-3.1h3.7v-6.1h3.46v6.1h4.53v3.1h-4.53v13.82c0,.83.18,1.51.55,2.05.37.54.94.81,1.71.81.49,0,.95-.09,1.36-.28.42-.18.75-.4.99-.65l1.02,2.59c-.43.43-.98.78-1.64,1.04s-1.5.39-2.52.39Z"/>
      <path class="cls-1" d="M488.43,220.92c-1.66,0-3.18-.3-4.55-.9-1.37-.6-2.54-1.42-3.51-2.47-.97-1.05-1.72-2.29-2.26-3.72-.54-1.43-.81-2.98-.81-4.64s.27-3.2.81-4.62c.54-1.42,1.29-2.65,2.26-3.7.97-1.05,2.14-1.87,3.51-2.47,1.37-.6,2.89-.9,4.55-.9,2.03,0,3.69.37,4.97,1.11,1.28.74,2.35,1.66,3.21,2.77l-2.31,2.12c-.74-1.02-1.58-1.76-2.52-2.22-.94-.46-2-.69-3.17-.69s-2.27.22-3.21.65c-.94.43-1.75,1.03-2.43,1.8-.68.77-1.19,1.68-1.55,2.73-.35,1.05-.53,2.19-.53,3.42s.18,2.38.53,3.44c.35,1.06.87,1.98,1.55,2.75.68.77,1.49,1.37,2.43,1.8.94.43,2.01.65,3.21.65,2.34,0,4.23-.97,5.68-2.91l2.31,2.12c-.86,1.11-1.93,2.03-3.21,2.77-1.28.74-2.93,1.11-4.97,1.11Z"/>
      <path class="cls-1" d="M511.2,220.92c-1.69,0-3.23-.31-4.6-.92-1.37-.62-2.53-1.46-3.49-2.52-.96-1.06-1.69-2.3-2.19-3.72-.51-1.42-.76-2.94-.76-4.57s.25-3.12.76-4.55,1.24-2.67,2.19-3.72c.95-1.05,2.12-1.88,3.49-2.49,1.37-.62,2.9-.92,4.6-.92s3.23.31,4.6.92c1.37.62,2.53,1.45,3.49,2.49.96,1.05,1.69,2.29,2.2,3.72.51,1.43.76,2.95.76,4.55s-.25,3.16-.76,4.57c-.51,1.42-1.24,2.66-2.2,3.72-.96,1.06-2.12,1.9-3.49,2.52-1.37.62-2.9.92-4.6.92ZM511.2,217.82c1.2,0,2.26-.24,3.17-.72.91-.48,1.68-1.11,2.31-1.89.63-.79,1.11-1.7,1.43-2.75.32-1.05.49-2.14.49-3.28s-.16-2.22-.49-3.26c-.32-1.03-.8-1.94-1.43-2.73-.63-.79-1.4-1.42-2.31-1.89-.91-.48-1.96-.72-3.17-.72s-2.26.24-3.19.72-1.7,1.11-2.33,1.89c-.63.79-1.11,1.69-1.43,2.73-.32,1.03-.49,2.12-.49,3.26s.16,2.23.49,3.28c.32,1.05.8,1.96,1.43,2.75.63.79,1.41,1.42,2.33,1.89.92.48,1.99.72,3.19.72Z"/>
      <path class="cls-1" d="M554.82,220.36v-15.15c0-1.42-.32-2.54-.97-3.37-.65-.83-1.69-1.25-3.14-1.25-1.17,0-2.3.35-3.4,1.04-1.09.69-1.93,1.49-2.52,2.38v16.35h-3.46v-15.15c0-1.42-.32-2.54-.95-3.37-.63-.83-1.69-1.25-3.17-1.25-1.14,0-2.25.35-3.33,1.06-1.08.71-1.93,1.51-2.54,2.4v16.31h-3.47v-22.31h3.47v3.23c.21-.37.56-.77,1.04-1.2.48-.43,1.04-.84,1.69-1.22.65-.38,1.35-.71,2.1-.97.75-.26,1.55-.39,2.38-.39,1.72,0,3.07.4,4.04,1.2.97.8,1.62,1.79,1.96,2.96.31-.49.72-.99,1.25-1.5.52-.51,1.11-.95,1.75-1.34.65-.38,1.36-.7,2.13-.95.77-.25,1.55-.37,2.36-.37,2.03,0,3.58.56,4.64,1.69,1.06,1.12,1.59,2.81,1.59,5.06v16.12h-3.46Z"/>
      <path class="cls-1" d="M575.28,220.92c-1.66,0-3.19-.29-4.57-.85-1.39-.57-2.58-1.37-3.58-2.4-1-1.03-1.79-2.26-2.36-3.7-.57-1.43-.85-3.03-.85-4.78,0-1.6.28-3.12.83-4.55s1.32-2.67,2.29-3.72c.97-1.05,2.13-1.88,3.47-2.49,1.34-.62,2.82-.92,4.42-.92,1.7,0,3.21.31,4.54.92,1.33.62,2.45,1.46,3.38,2.54.92,1.08,1.63,2.35,2.11,3.81.48,1.46.72,3.03.72,4.69v.88h-18.11c.06,1.05.29,2.04.69,2.98.4.94.95,1.76,1.64,2.45.69.69,1.52,1.25,2.47,1.66.96.42,2.03.62,3.23.62,1.29,0,2.54-.25,3.74-.74,1.2-.49,2.25-1.19,3.14-2.08l1.66,2.26c-1.11,1.11-2.4,1.96-3.88,2.54-1.48.58-3.14.88-4.99.88ZM582.21,207.8c0-.83-.15-1.69-.44-2.56-.29-.88-.74-1.68-1.34-2.4-.6-.72-1.36-1.32-2.29-1.78s-2.02-.69-3.28-.69-2.25.23-3.14.69-1.64,1.05-2.24,1.76c-.6.71-1.06,1.5-1.39,2.38-.32.88-.5,1.75-.53,2.61h14.65Z"/>
      <path class="cls-1" d="M598.29,220.92c-1.85,0-3.53-.29-5.04-.85-1.51-.57-2.83-1.46-3.97-2.66l1.8-2.49c.74.86,1.76,1.61,3.07,2.24,1.31.63,2.73.95,4.27.95,1.72,0,3.03-.36,3.93-1.09.89-.72,1.34-1.64,1.34-2.75,0-.89-.34-1.58-1.02-2.06-.68-.48-1.53-.87-2.56-1.18-1.03-.31-2.14-.59-3.33-.85-1.19-.26-2.29-.63-3.33-1.11s-1.89-1.11-2.56-1.89c-.68-.79-1.02-1.87-1.02-3.26,0-.86.18-1.69.55-2.47.37-.79.91-1.47,1.62-2.06.71-.58,1.58-1.05,2.61-1.39,1.03-.34,2.21-.51,3.53-.51,1.91,0,3.54.32,4.9.95,1.35.63,2.48,1.39,3.37,2.29l-1.62,2.4c-.68-.8-1.59-1.47-2.75-2.01-1.15-.54-2.46-.81-3.9-.81-1.54,0-2.75.34-3.63,1.02-.88.68-1.32,1.51-1.32,2.49,0,.8.34,1.42,1.02,1.85.68.43,1.53.79,2.56,1.09,1.03.29,2.14.57,3.33.83,1.19.26,2.29.64,3.33,1.13,1.03.49,1.89,1.16,2.56,2.01.68.85,1.02,1.99,1.02,3.44,0,.92-.18,1.8-.55,2.63-.37.83-.92,1.55-1.66,2.15s-1.66,1.08-2.75,1.43c-1.09.35-2.36.53-3.81.53Z"/>
      <path class="cls-1" d="M614.55,220.82c-.71,0-1.31-.25-1.8-.74-.49-.49-.74-1.09-.74-1.8s.25-1.31.74-1.8,1.09-.74,1.8-.74,1.31.25,1.8.74.74,1.09.74,1.8-.25,1.31-.74,1.8c-.49.49-1.09.74-1.8.74Z"/>
    </g>
  </g>
</svg>